<?xml version="1.0" standalone="no"?>
<!DOCTYPE svg PUBLIC "-//W3C//DTD SVG 20010904//EN"
 "http://www.w3.org/TR/2001/REC-SVG-20010904/DTD/svg10.dtd">
<svg version="1.0" xmlns="http://www.w3.org/2000/svg"
 width="1254.000000pt" height="1254.000000pt" viewBox="0 0 1254.000000 1254.000000"
 preserveAspectRatio="xMidYMid meet">
<metadata>
Created by potrace 1.16, written by Peter Selinger 2001-2019
</metadata>
<g transform="translate(0.000000,1254.000000) scale(0.100000,-0.100000)"
fill="#000000" stroke="none">
<path d="M0 6270 l0 -6270 6270 0 6270 0 0 6270 0 6270 -6270 0 -6270 0 0
-6270z m6641 4490 c881 -69 1737 -424 2452 -1018 129 -107 369 -343 505 -497
486 -551 839 -1237 1000 -1945 77 -335 102 -552 109 -927 7 -386 -13 -635 -78
-962 -173 -869 -611 -1671 -1260 -2306 -361 -354 -707 -603 -1137 -819 -628
-316 -1247 -459 -1982 -459 -364 0 -594 22 -904 85 -703 142 -1354 465 -1916
949 -663 571 -1142 1286 -1394 2079 -224 704 -267 1471 -125 2200 133 681 404
1293 810 1832 308 408 689 766 1110 1046 653 433 1336 678 2069 741 141 12
587 13 741 1z"/>
<path d="M5945 10051 c-81 -38 -193 -127 -326 -260 -210 -211 -371 -435 -554
-770 -113 -208 -279 -608 -345 -831 -12 -41 -28 -95 -36 -120 -24 -80 -74
-293 -69 -298 18 -19 675 -60 1093 -69 l282 -6 0 1186 c0 653 -1 1187 -2 1187
-2 0 -21 -9 -43 -19z"/>
<path d="M6560 8884 l0 -1187 291 7 c349 8 730 29 928 51 80 8 147 17 149 19
2 2 -9 55 -23 118 -177 751 -554 1480 -985 1906 -125 124 -214 195 -302 242
l-58 31 0 -1187z"/>
<path d="M4890 9909 c-665 -270 -1272 -735 -1696 -1301 -122 -162 -286 -423
-272 -432 73 -47 227 -115 370 -165 160 -55 407 -116 587 -146 169 -27 165
-28 176 34 21 120 134 519 199 701 161 452 371 854 625 1194 60 80 104 146 97
146 -6 0 -45 -14 -86 -31z"/>
<path d="M7566 9928 c5 -7 34 -44 65 -83 142 -177 322 -474 456 -753 162 -337
279 -677 389 -1124 33 -137 15 -127 184 -98 340 58 710 175 891 280 l70 41
-27 47 c-232 403 -613 833 -1008 1136 -267 205 -581 388 -880 512 -135 57
-152 62 -140 42z"/>
<path d="M9729 7597 c-254 -125 -557 -216 -971 -294 l-148 -28 0 -30 c0 -16 5
-59 10 -95 76 -542 72 -1369 -11 -1899 -6 -40 -8 -78 -6 -85 3 -8 27 -17 54
-20 324 -47 775 -174 1031 -290 68 -31 127 -56 131 -56 8 0 17 23 77 190 255
706 299 1448 129 2165 -43 182 -148 506 -163 504 -4 0 -64 -28 -133 -62z"/>
<path d="M2642 7568 c-226 -627 -281 -1324 -157 -1989 22 -120 91 -384 128
-494 44 -128 97 -268 107 -278 4 -4 34 4 66 19 311 140 636 236 1049 309 50 9
95 17 101 19 8 3 8 22 2 63 -85 585 -89 1294 -13 1922 9 68 14 125 12 127 -2
2 -88 19 -193 39 -410 78 -732 178 -994 310 -38 19 -71 35 -74 35 -2 0 -18
-37 -34 -82z"/>
<path d="M4505 7188 c-4 -13 -23 -185 -47 -433 -8 -82 -12 -280 -12 -535 0
-410 11 -579 57 -900 l12 -85 46 2 c26 2 170 12 320 23 151 11 411 25 579 31
168 5 356 12 418 15 l112 6 0 904 0 903 -32 5 c-18 3 -157 7 -308 11 -270 5
-682 26 -890 45 -248 22 -250 22 -255 8z"/>
<path d="M7845 7185 c-219 -20 -685 -44 -965 -51 -140 -3 -270 -7 -287 -10
l-33 -5 0 -903 0 -903 83 -6 c45 -4 134 -7 198 -7 191 0 1038 -49 1151 -66 43
-6 39 -15 62 176 37 307 41 380 41 815 -1 435 -11 641 -47 893 -11 79 -12 82
-37 81 -14 -1 -89 -8 -166 -14z"/>
<path d="M6560 3641 l0 -1110 73 41 c372 209 823 843 1094 1538 83 213 192
554 181 565 -11 11 -740 54 -1185 70 l-163 6 0 -1110z"/>
<path d="M5375 4729 c-93 -4 -224 -12 -290 -18 -66 -6 -193 -16 -282 -22 -90
-7 -163 -16 -163 -21 0 -34 61 -239 124 -415 175 -489 384 -879 656 -1223 161
-203 378 -404 510 -470 l60 -30 0 1105 0 1105 -222 -2 c-123 0 -299 -5 -393
-9z"/>
<path d="M3949 4590 c-107 -17 -424 -90 -539 -125 -241 -74 -437 -156 -424
-177 26 -43 184 -275 232 -340 327 -438 804 -851 1279 -1107 182 -98 523 -245
523 -225 0 4 -39 56 -86 117 -176 225 -318 456 -464 752 -155 316 -250 563
-358 940 -56 193 -45 182 -163 165z"/>
<path d="M8476 4573 c-14 -59 -100 -343 -136 -448 -174 -506 -401 -946 -688
-1335 -46 -63 -96 -127 -110 -142 -14 -16 -21 -28 -14 -28 63 0 539 224 682
320 14 10 77 51 141 93 375 242 715 568 1014 970 102 139 197 286 190 297 -8
13 -234 105 -350 143 -143 46 -312 88 -507 126 -199 39 -214 39 -222 4z"/>
</g>
</svg>
